{
  "accessors": [
    {
      "bufferView": 2,
      "componentType": 5126,
      "count": 4240,
      "max": [
        95.008087158203125,
        -47.120758056640625,
        265.11819458007812
      ],
      "min": [
        -95.008087158203125,
        -94.316444396972656,
        208.15365600585938
      ],
      "type": "VEC3"
    },
    {
      "bufferView": 2,
      "byteOffset": 50880,
      "componentType": 5126,
      "count": 4240,
      "max": [
        1,
        1,
        1
      ],
      "min": [
        -1,
        -1,
        -1
      ],
      "type": "VEC3"
    },
    {
      "bufferView": 3,
      "componentType": 5126,
      "count": 4240,
      "max": [
        1,
        1,
        1,
        1
      ],
      "min": [
        -1,
        -1,
        -0.99976927042007446,
        -1
      ],
      "type": "VEC4"
    },
    {
      "bufferView": 1,
      "componentType": 5126,
      "count": 4240,
      "max": [
        0.99462902545928955,
        0.99490702152252197
      ],
      "min": [
        0.011115999892354012,
        0.0092769861221313477
      ],
      "type": "VEC2"
    },
    {
      "bufferView": 0,
      "componentType": 5125,
      "count": 8058,
      "max": [
        4239
      ],
      "min": [
        0
      ],
      "type": "SCALAR"
    },
    {
      "bufferView": 2,
      "byteOffset": 101760,
      "componentType": 5126,
      "count": 7399,
      "max": [
        118.94065856933594,
        77.489784240722656,
        293.98004150390625
      ],
      "min": [
        -90.3626708984375,
        -174.31648254394531,
        125.20254516601562
      ],
      "type": "VEC3"
    },
    {
      "bufferView": 2,
      "byteOffset": 190548,
      "componentType": 5126,
      "count": 7399,
      "max": [
        1,
        1,
        1
      ],
      "min": [
        -1,
        -1,
        -1
      ],
      "type": "VEC3"
    },
    {
      "bufferView": 1,
      "byteOffset": 33920,
      "componentType": 5126,
      "count": 7399,
      "max": [
        0.99804699420928955,
        0.99710100889205933
      ],
      "min": [
        -0.0026990000624209642,
        0.0034180879592895508
      ],
      "type": "VEC2"
    },
    {
      "bufferView": 0,
      "byteOffset": 32232,
      "componentType": 5125,
      "count": 15741,
      "max": [
        7398
      ],
      "min": [
        0
      ],
      "type": "SCALAR"
    },
    {
      "bufferView": 2,
      "byteOffset": 279336,
      "componentType": 5126,
      "count": 7064,
      "max": [
        106.392333984375,
        52.967880249023438,
        97.554710388183594
      ],
      "min": [
        -106.40869140625,
        -68.917457580566406,
        -4.6831531524658203
      ],
      "type": "VEC3"
    },
    {
      "bufferView": 2,
      "byteOffset": 364104,
      "componentType": 5126,
      "count": 7064,
      "max": [
        1,
        1,
        1
      ],
      "min": [
        -1,
        -1,
        -1
      ],
      "type": "VEC3"
    },
    {
      "bufferView": 1,
      "byteOffset": 93112,
      "componentType": 5126,
      "count": 7064,
      "max": [
        0.99902302026748657,
        0.99690097570419312
      ],
      "min": [
        0.0019990000873804092,
        0.0024410486221313477
      ],
      "type": "VEC2"
    },
    {
      "bufferView": 0,
      "byteOffset": 95196,
      "componentType": 5125,
      "count": 18378,
      "max": [
        7063
      ],
      "min": [
        0
      ],
      "type": "SCALAR"
    },
    {
      "bufferView": 2,
      "byteOffset": 448872,
      "componentType": 5126,
      "count": 7686,
      "max": [
        92.43035888671875,
        90.121482849121094,
        181.49520874023438
      ],
      "min": [
        -91.965293884277344,
        -71.902320861816406,
        70.579399108886719
      ],
      "type": "VEC3"
    },
    {
      "bufferView": 2,
      "byteOffset": 541104,
      "componentType": 5126,
      "count": 7686,
      "max": [
        1,
        1,
        1
      ],
      "min": [
        -1,
        -1,
        -1
      ],
      "type": "VEC3"
    },
    {
      "bufferView": 1,
      "byteOffset": 149624,
      "componentType": 5126,
      "count": 7686,
      "max": [
        1,
        0.99900102615356445
      ],
      "min": [
        -0.00060000002849847078,
        0.0014650821685791016
      ],
      "type": "VEC2"
    },
    {
      "bufferView": 0,
      "byteOffset": 168708,
      "componentType": 5125,
      "count": 16260,
      "max": [
        7685
      ],
      "min": [
        0
      ],
      "type": "SCALAR"
    }
  ],
  "asset": {
    "extras": {
      "author": "dannysgallegos (https://sketchfab.com/dannysgallegos)",
      "license": "CC-BY-4.0 (http://creativecommons.org/licenses/by/4.0/)",
      "source": "https://sketchfab.com/3d-models/spree-mech-robot-hawkin-1fbf7b5cead24b5aa773fc92c3939e19",
      "title": "Spree Mech Robot - HAWKIN"
    },
    "generator": "Sketchfab-9.92.1",
    "version": "2.0"
  },
  "bufferViews": [
    {
      "buffer": 0,
      "byteLength": 233748,
      "byteOffset": 0,
      "name": "floatBufferViews",
      "target": 34963
    },
    {
      "buffer": 0,
      "byteLength": 211112,
      "byteOffset": 233748,
      "byteStride": 8,
      "name": "floatBufferViews",
      "target": 34962
    },
    {
      "buffer": 0,
      "byteLength": 633336,
      "byteOffset": 444860,
      "byteStride": 12,
      "name": "floatBufferViews",
      "target": 34962
    },
    {
      "buffer": 0,
      "byteLength": 67840,
      "byteOffset": 1078196,
      "byteStride": 16,
      "name": "floatBufferViews",
      "target": 34962
    }
  ],
  "buffers": [
    {
      "byteLength": 1146036,
      "uri": "scene.bin"
    }
  ],
  "images": [
    {
      "uri": "textures/material_baseColor.png"
    },
    {
      "uri": "textures/material_normal.png"
    },
    {
      "uri": "textures/BODY_baseColor.png"
    },
    {
      "uri": "textures/LOWER_LEG_baseColor.png"
    },
    {
      "uri": "textures/UPPER_LEG_baseColor.png"
    }
  ],
  "materials": [
    {
      "doubleSided": true,
      "emissiveFactor": [
        0,
        0,
        0
      ],
      "name": "material",
      "normalTexture": {
        "index": 1,
        "scale": 1,
        "texCoord": 0
      },
      "pbrMetallicRoughness": {
        "baseColorFactor": [
          1,
          1,
          1,
          1
        ],
        "baseColorTexture": {
          "index": 0,
          "texCoord": 0
        },
        "metallicFactor": 0,
        "roughnessFactor": 0.69484978932199992
      }
    },
    {
      "doubleSided": true,
      "emissiveFactor": [
        0,
        0,
        0
      ],
      "name": "BODY",
      "pbrMetallicRoughness": {
        "baseColorFactor": [
          1,
          1,
          1,
          1
        ],
        "baseColorTexture": {
          "index": 2,
          "texCoord": 0
        },
        "metallicFactor": 0.44556268962540052,
        "roughnessFactor": 0.67052909666867311
      }
    },
    {
      "doubleSided": true,
      "emissiveFactor": [
        0,
        0,
        0
      ],
      "name": "LOWER_LEG",
      "pbrMetallicRoughness": {
        "baseColorFactor": [
          1,
          1,
          1,
          1
        ],
        "baseColorTexture": {
          "index": 3,
          "texCoord": 0
        },
        "metallicFactor": 0,
        "roughnessFactor": 1
      }
    },
    {
      "doubleSided": true,
      "emissiveFactor": [
        0,
        0,
        0
      ],
      "name": "UPPER_LEG",
      "pbrMetallicRoughness": {
        "baseColorFactor": [
          1,
          1,
          1,
          1
        ],
        "baseColorTexture": {
          "index": 4,
          "texCoord": 0
        },
        "metallicFactor": 0.47596355544205898,
        "roughnessFactor": 0.56108597972870267
      }
    }
  ],
  "meshes": [
    {
      "primitives": [
        {
          "attributes": {
            "NORMAL": 1,
            "POSITION": 0,
            "TANGENT": 2,
            "TEXCOORD_0": 3
          },
          "indices": 4,
          "material": 0,
          "mode": 4
        }
      ]
    },
    {
      "primitives": [
        {
          "attributes": {
            "NORMAL": 6,
            "POSITION": 5,
            "TEXCOORD_0": 7
          },
          "indices": 8,
          "material": 1,
          "mode": 4
        }
      ]
    },
    {
      "primitives": [
        {
          "attributes": {
            "NORMAL": 10,
            "POSITION": 9,
            "TEXCOORD_0": 11
          },
          "indices": 12,
          "material": 2,
          "mode": 4
        }
      ]
    },
    {
      "primitives": [
        {
          "attributes": {
            "NORMAL": 14,
            "POSITION": 13,
            "TEXCOORD_0": 15
          },
          "indices": 16,
          "material": 3,
          "mode": 4
        }
      ]
    }
  ],
  "nodes": [
    {
      "children": [
        1
      ],
      "name": "RootNode (gltf orientation matrix)",
      "rotation": [
        -0.70710678118654746,
        -0,
        -0,
        0.70710678118654757
      ]
    },
    {
      "children": [
        2
      ],
      "name": "RootNode (model correction matrix)"
    },
    {
      "children": [
        3,
        4,
        5,
        6
      ],
      "name": "Spree.obj.cleaner.materialmerger.gles"
    },
    {
      "mesh": 0,
      "name": ""
    },
    {
      "mesh": 1,
      "name": ""
    },
    {
      "mesh": 2,
      "name": ""
    },
    {
      "mesh": 3,
      "name": ""
    }
  ],
  "samplers": [
    {
      "magFilter": 9729,
      "minFilter": 9987,
      "wrapS": 10497,
      "wrapT": 10497
    }
  ],
  "scene": 0,
  "scenes": [
    {
      "name": "OSG_Scene",
      "nodes": [
        0
      ]
    }
  ],
  "textures": [
    {
      "sampler": 0,
      "source": 0
    },
    {
      "sampler": 0,
      "source": 1
    },
    {
      "sampler": 0,
      "source": 2
    },
    {
      "sampler": 0,
      "source": 3
    },
    {
      "sampler": 0,
      "source": 4
    }
  ]
}

